# xmcd
#
# Track frame offsets:
#	150
#	11174
#	26857
#	39483
#	50844
#	64332
#	77926
#	91134
#	103267
#	114269
#	127863
#	142286
#	157332
#	167022
#	178534
#	197543
#	208426
#	221844
#	243436
#	253055
#	267008
#	280626
#
# Disc length: 3963 seconds
#
# Revision: 1
# Processed by: cddbd v1.5.2PL0 Copyright (c) Steve Scherf et al.
# Submitted via: EasyCDDAExtractor 10.0.2.1
#
DISCID=510f7916
DTITLE=Waylon Jennings - The Essential Waylon Jennings - CD2
DYEAR=2007
DGENRE=Country
TTITLE0=This Time
TTITLE1=It's Not Supposed To Be Thst Way
TTITLE2=I'm A Ramblin' Man
TTITLE3=Rainy Day Woman
TTITLE4=Amanda
TTITLE5=Bob Wills Is Still The King
TTITLE6=Are You Sure Hank Done It This Awy
TTITLE7=Waymorer's Blues
TTITLE8=Dreaming My Dreams With You
TTITLE9=]Good Hearted Woman
TTITLE10=Are You Ready For The Country
TTITLE11=Luckenbach, Texas (Back To The Basics Of Love)
TTITLE12=The Wurlitzer Prize (I Don't Want To Get Over You)
TTITLE13=Mammas Don't Let Your Babies Grow Up To Be Cowboys
TTITLE14=Iv'e Always Been Crazy
TTITLE15=A Long Time Ago
TTITLE16=Don't You Think This Outlaw Bit's Done Got Out Of Hand
TTITLE17=I Ain't Living Long Like This
TTITLE18=Theme From The Dukes Of Hazzard (Good Ol' Boys)
TTITLE19=Storms Never Last
TTITLE20=Drinkin' And Dreamin'
TTITLE21=Rose In Paradise
EXTD=
EXTT0=
EXTT1=
EXTT2=
EXTT3=
EXTT4=
EXTT5=
EXTT6=
EXTT7=
EXTT8=
EXTT9=
EXTT10=
EXTT11=
EXTT12=
EXTT13=
EXTT14=
EXTT15=
EXTT16=
EXTT17=
EXTT18=
EXTT19=
EXTT20=
EXTT21=
PLAYORDER=
